HIERARCHY
ROOT joint_Root
{
	OFFSET 0.0 0.0 0.0
	CHANNELS 6 Xposition Yposition Zposition Zrotation Xrotation Yrotation 
	JOINT Hips
	{
		OFFSET 4.5925 91.4895 -427.239
		CHANNELS 6 Xposition Yposition Zposition Zrotation Xrotation Yrotation 
		JOINT Spine
		{
			OFFSET 15.7357 0.0 0.0
			CHANNELS 6 Xposition Yposition Zposition Zrotation Xrotation Yrotation 
			JOINT Chest
			{
				OFFSET 8.98455 -0.406207 0.0
				CHANNELS 6 Xposition Yposition Zposition Zrotation Xrotation Yrotation 
				JOINT Neck
				{
					OFFSET 16.3773 0.0 0.0
					CHANNELS 6 Xposition Yposition Zposition Zrotation Xrotation Yrotation 
					JOINT Head
					{
						OFFSET 6.45672 0.0 0.0
						CHANNELS 6 Xposition Yposition Zposition Zrotation Xrotation Yrotation 
						End Site
						{
							OFFSET 0.0 0.0 0.0
						}
					}
				}
				JOINT Shoulder_L
				{
					OFFSET 12.9942 -0.242716 4.98039
					CHANNELS 6 Xposition Yposition Zposition Zrotation Xrotation Yrotation 
					JOINT UpperArm_L
					{
						OFFSET 5.34809 0.0 0.0
						CHANNELS 6 Xposition Yposition Zposition Zrotation Xrotation Yrotation 
						JOINT LowerArm_L
						{
							OFFSET 24.3286 1.87007e-05 0.0
							CHANNELS 6 Xposition Yposition Zposition Zrotation Xrotation Yrotation 
							JOINT Hand_L
							{
								OFFSET 22.2916 0.0 0.0
								CHANNELS 6 Xposition Yposition Zposition Zrotation Xrotation Yrotation 
								End Site
								{
									OFFSET 0.0 0.0 0.0
								}
							}
						}
					}
				}
				JOINT Shoulder_R
				{
					OFFSET 12.9945 -0.242716 -4.98039
					CHANNELS 6 Xposition Yposition Zposition Zrotation Xrotation Yrotation 
					JOINT UpperArm_R
					{
						OFFSET -5.34813 0.0 0.0
						CHANNELS 6 Xposition Yposition Zposition Zrotation Xrotation Yrotation 
						JOINT LowerArm_R
						{
							OFFSET -24.3289 0.000322201 0.0
							CHANNELS 6 Xposition Yposition Zposition Zrotation Xrotation Yrotation 
							JOINT Hand_R
							{
								OFFSET -22.2915 -0.000108084 0.0
								CHANNELS 6 Xposition Yposition Zposition Zrotation Xrotation Yrotation 
								End Site
								{
									OFFSET 0.0 0.0 0.0
								}
							}
						}
					}
				}
			}
		}
		JOINT UpperLeg_L
		{
			OFFSET -2.19248 -6.46944 0.0
			CHANNELS 6 Xposition Yposition Zposition Zrotation Xrotation Yrotation 
			JOINT LowerLeg_L
			{
				OFFSET 39.0811 0.0 -1.23785e-05
				CHANNELS 6 Xposition Yposition Zposition Zrotation Xrotation Yrotation 
				JOINT Foot_L
				{
					OFFSET 40.9854 0.0 -1.26872e-05
					CHANNELS 6 Xposition Yposition Zposition Zrotation Xrotation Yrotation 
					JOINT Toes_L
					{
						OFFSET 11.7543 0.0 0.0
						CHANNELS 6 Xposition Yposition Zposition Zrotation Xrotation Yrotation 
						End Site
						{
							OFFSET 0.0 0.0 0.0
						}
					}
				}
			}
		}
		JOINT UpperLeg_R
		{
			OFFSET -2.19251 6.46944 0.0
			CHANNELS 6 Xposition Yposition Zposition Zrotation Xrotation Yrotation 
			JOINT LowerLeg_R
			{
				OFFSET -39.0811 -0.00228153 -0.0401928
				CHANNELS 6 Xposition Yposition Zposition Zrotation Xrotation Yrotation 
				JOINT Foot_R
				{
					OFFSET -40.9854 0.0 0.0
					CHANNELS 6 Xposition Yposition Zposition Zrotation Xrotation Yrotation 
					JOINT Toes_R
					{
						OFFSET -11.7543 0.0 0.0
						CHANNELS 6 Xposition Yposition Zposition Zrotation Xrotation Yrotation 
						End Site
						{
							OFFSET 0.0 0.0 0.0
						}
					}
				}
			}
		}
	}
}
MOTION
Frames:	4
Frame Time:	0.0333333
0.000000 0.000000 0.000000 0.000000 0.000000 -0.000000 0.605593 91.614700 -0.116183 87.787500 -6.907410 4.664500 15.735700 0.000005 -0.000001 68.676900 85.657300 -73.612700 8.984550 -0.406207 -0.000000 0.223105 -2.833160 -9.860330 16.377300 -0.000001 -0.000001 2.726630 0.498488 2.288710 6.456720 -0.000001 -0.000000 -2.639650 4.759720 1.421080 12.994200 -0.242716 4.980390 -90.350000 0.910229 -68.966000 5.348090 -0.000007 -0.000001 -61.414700 24.115100 -2.941210 24.328600 0.000019 0.000005 9.186380 17.553600 -28.200500 22.291600 -0.000001 0.000005 8.564290 5.262550 1.099910 12.994500 -0.242716 -4.980390 91.773300 -5.987370 -73.472700 -5.348130 -0.000001 -0.000004 -47.788400 -50.249600 -59.180100 -24.328900 0.000322 -0.000009 -12.913100 -39.084600 -19.982400 -22.291500 -0.000108 -0.000004 22.739800 5.145630 4.045890 -2.192480 -6.469440 -0.000000 -174.955000 -14.673700 -4.061760 39.081100 -0.000007 -0.000012 -0.151696 0.288133 27.766000 40.985400 -0.000006 -0.000013 0.617249 3.636070 -68.719700 11.754300 -0.000000 0.000003 -0.000237 -0.002132 -16.657600 -2.192510 6.469440 -0.000001 177.658000 19.828700 175.656000 -39.081100 -0.002282 -0.040193 0.012203 -0.017428 27.040200 -40.985400 0.000008 0.000006 6.356870 16.752300 -67.460500 -11.754300 -0.000006 -0.000006 -0.005296 -0.064305 -19.189700
0.000000 0.000000 0.000000 0.000000 0.000000 -0.000000 0.419915 91.479700 0.037636 87.670000 -7.659520 5.115830 15.735700 0.000005 -0.000001 74.594100 85.691400 -79.802500 8.984550 -0.406207 -0.000000 0.474441 -1.957860 -10.401600 16.377300 -0.000001 -0.000001 1.742860 1.456380 0.602461 6.456720 -0.000001 -0.000000 -3.642700 4.436250 1.272280 12.994200 -0.242716 4.980390 -90.440000 1.130860 -68.737800 5.348090 -0.000007 -0.000001 -60.649300 25.137700 -3.619710 24.328600 0.000019 0.000005 10.713300 20.367300 -28.528500 22.291600 -0.000001 0.000005 8.436620 5.239750 1.700670 12.994500 -0.242716 -4.980390 90.899300 -3.287150 -74.690400 -5.348130 -0.000001 -0.000004 -51.019100 -49.583200 -53.023700 -24.328900 0.000322 -0.000009 -11.689100 -38.093000 -18.537300 -22.291500 -0.000108 -0.000004 23.827100 4.966320 8.024850 -2.192480 -6.469440 -0.000000 -174.620000 -14.472800 -3.710520 39.081100 -0.000007 -0.000012 -0.165714 0.305456 28.480700 40.985400 -0.000006 -0.000013 0.273187 2.819690 -69.229500 11.754300 -0.000000 0.000003 -0.000261 -0.002318 -16.664300 -2.192510 6.469440 -0.000001 177.714000 19.402600 176.075000 -39.081100 -0.002282 -0.040193 0.011384 -0.015566 27.422600 -40.985400 0.000008 0.000006 6.655670 16.963900 -68.196700 -11.754300 -0.000006 -0.000006 -0.004904 -0.060534 -19.036000
0.000000 0.000000 0.000000 0.000000 0.000000 -0.000000 0.482794 91.333900 0.348315 87.807200 -8.215350 5.792850 15.735700 0.000005 -0.000001 75.935600 85.588300 -81.154700 8.984550 -0.406207 -0.000000 0.731811 -1.823860 -10.418900 16.377300 -0.000001 -0.000001 1.658760 2.113360 0.062040 6.456720 -0.000001 -0.000000 -3.722480 5.268630 1.094650 12.994200 -0.242716 4.980390 -90.565200 1.448970 -68.689600 5.348090 -0.000007 -0.000001 -61.639500 23.538500 -2.329170 24.328600 0.000019 0.000005 10.234700 19.861000 -27.987500 22.291600 -0.000001 0.000005 10.164900 5.218280 2.257260 12.994500 -0.242716 -4.980390 90.518400 -1.838800 -74.251800 -5.348130 -0.000001 -0.000004 -52.044600 -47.951200 -52.262600 -24.328900 0.000322 -0.000009 -10.477400 -35.015300 -17.862200 -22.291500 -0.000108 -0.000004 23.416800 4.841070 10.530100 -2.192480 -6.469440 -0.000000 -174.550000 -14.781400 -2.957660 39.081100 -0.000007 -0.000012 -0.171671 0.309543 29.012700 40.985400 -0.000006 -0.000013 0.259813 2.651190 -69.791500 11.754300 -0.000000 0.000003 -0.000287 -0.002509 -16.671200 -2.192510 6.469440 -0.000001 177.289000 18.745100 176.732000 -39.081100 -0.002282 -0.040193 0.011842 -0.016083 27.957300 -40.985400 0.000008 0.000006 6.932120 16.780800 -69.106200 -11.754300 -0.000006 -0.000006 -0.005002 -0.061486 -19.074800
0.000000 0.000000 0.000000 0.000000 0.000000 -0.000000 0.743126 91.284300 0.723197 88.009700 -8.979200 6.192270 15.735700 0.000005 -0.000001 73.475200 85.503000 -78.558800 8.984550 -0.406207 -0.000000 0.778073 -2.247990 -10.144600 16.377300 -0.000001 -0.000001 2.207460 2.282990 0.892161 6.456720 -0.000001 -0.000000 -2.989030 6.033910 1.576840 12.994200 -0.242716 4.980390 -90.652400 1.650650 -68.432300 5.348090 -0.000007 -0.000001 -63.057800 22.042900 -0.974151 24.328600 0.000019 0.000005 7.553330 16.317000 -25.262900 22.291600 -0.000001 0.000005 11.938700 5.235390 1.816250 12.994500 -0.242716 -4.980390 90.649100 -2.213110 -73.650600 -5.348130 -0.000001 -0.000004 -57.203300 -48.424600 -59.805300 -24.328900 0.000322 -0.000009 -12.112300 -36.154800 -19.986700 -22.291500 -0.000108 -0.000004 24.064300 4.725310 12.700500 -2.192480 -6.469440 -0.000000 -174.662000 -15.707600 -2.092750 39.081100 -0.000007 -0.000012 -0.167155 0.302700 28.908300 40.985400 -0.000006 -0.000013 0.448592 2.751510 -70.123900 11.754300 -0.000000 0.000003 -0.000276 -0.002426 -16.668200 -2.192510 6.469440 -0.000001 176.885000 17.378200 177.051000 -39.081100 -0.002282 -0.040193 0.011494 -0.015204 28.305800 -40.985400 0.000008 0.000006 6.664650 16.343500 -69.263600 -11.754300 -0.000006 -0.000006 -0.004754 -0.059065 -18.976200
